<svg xmlns="http://www.w3.org/2000/svg" viewBox="0 0 1537.36 570.98"><defs><style>.cls-1{fill:#eceff1;}</style></defs><g id="Layer_2" data-name="Layer 2"><g id="Layer_1-2" data-name="Layer 1"><path class="cls-1" d="M0,450.27c0-94.84,37.36-129.33,226.09-218.43V192.56c0-120.71-20.11-154.24-76.64-154.24-44.07,0-88.14,16.29-88.14,104.43v14.37H11.5C11.5,51.73,49.82,0,151.37,0c92.93,0,125.5,55.57,125.5,186.82V465.6c0,15.33,1,86.22,2.87,96.76H235.67c-2.87-26.82-7.66-61.31-8.62-73.77C210.77,534.58,166.7,571,111.13,571,44.07,571,0,522.12,0,450.27Zm226.09,1v-182c-136,70.9-175.31,91-175.31,173.41,0,66.1,37.36,86.22,72.8,86.22C170.53,528.83,206,492.43,226.09,451.23Z"/><path class="cls-1" d="M316.7,0h37.36V571H316.7Z"/><path class="cls-1" d="M447.8,0h37.36V571H447.8Z"/><path class="cls-1" d="M545.88,537c90.16,0,98.85-25.31,98.85-55.36,0-20.56-6.32-45.87-12.65-71.18L535.6,0h41.12l90.16,417.56L753.87,0h41.92L684.28,494.27c-11.87,53-46.66,76.71-121,76.71h-17.4Z"/><path class="cls-1" d="M849.64,22.34h60.53c55.06,0,70.79,33.1,70.79,74.87v108c0,44.66-15.38,77.43-69.08,77.43H849.64Zm61.22,246.45c44.8,0,51.3-30.21,51.3-65.55V98.49c0-37.91-9.58-62-52-62H868.11V268.79Z"/><path class="cls-1" d="M1023,42.9h18.47V72.46H1023Zm0,54h18.47V282.6H1023Z"/><path class="cls-1" d="M1070.56,312.81c0-19,18.13-35,35.23-43.38-17.1-4.18-23.94-10-23.94-20.57,0-11.88,9.92-21.84,24.62-33.41-19.49-13.18-26-34.38-26-57.52,0-30.52,16.08-63.94,55.06-63.94,24.28,0,36.59,12.21,43.78,24.74,4.44-8,15.73-18.31,26.67-21.85l4.79-1.6,5.13,12.85c-12,2.57-25,10.6-31.81,18.64,3.42,8.35,6.5,23.77,6.5,31.48,0,36.95-15.73,65.23-54.37,65.23-7.53,0-16.42-1.28-21.21-3.21-8.89,8.35-17.44,17.35-17.44,25.38,0,6.75,4.79,10,16.42,11.89l32.14,5.46c32.15,5.46,52,17.67,52,41.45,0,29.24-29.75,41.13-63.6,41.13C1093.14,345.58,1070.56,335,1070.56,312.81Zm112.18-8c0-13.49-6.84-22.81-43.44-28.92l-21.54-3.53c-11.63,6.43-31.46,18.64-31.46,36.31,0,16.39,17.09,23.13,48.22,23.13C1161.19,331.76,1182.74,323.73,1182.74,304.77Zm-8.9-146.84c0-19.6-6.49-51.41-38-51.41-31.8,0-38.64,34.06-38.64,51.41,0,19.92,5.13,53,39,53S1173.84,178.5,1173.84,157.93Z"/><path class="cls-1" d="M1234.37,42.9h18.47V72.46h-18.47Zm0,54h18.47V282.6h-18.47Z"/><path class="cls-1" d="M1308.24,246V108.13h-26V96.88h26V37.44h18.12V96.88h33.52v11.25h-33.52V243.72c0,20.25,2.4,27.31,17.1,27.31a79.67,79.67,0,0,0,14.71-1.6V282.6a89.84,89.84,0,0,1-18.47,1.93C1312,284.53,1308.24,267.82,1308.24,246Z"/><path class="cls-1" d="M1379.71,245c0-31.81,13.34-43.38,80.71-73.26V158.58c0-40.49-7.18-51.74-27.36-51.74-15.73,0-31.46,5.47-31.46,35v4.82h-17.79c0-35.35,13.68-52.7,49.93-52.7,33.18,0,44.8,18.64,44.8,62.66v93.5c0,5.14.34,28.92,1,32.45h-15.73c-1-9-2.74-20.56-3.08-24.74-5.81,15.42-21.55,27.63-41.38,27.63C1395.44,285.49,1379.71,269.11,1379.71,245Zm80.71.32V184.28c-48.56,23.78-62.59,30.53-62.59,58.16,0,22.17,13.34,28.92,26,28.92C1440.58,271.36,1453.24,259.15,1460.42,245.33Z"/><path class="cls-1" d="M1519.24,22.34h18.12V282.6h-18.12Z"/><path class="cls-1" d="M849.64,498.24l11-3.52c3.29,25.12,10.09,42.26,35,42.26,18.79,0,30.29-8.68,30.29-30.52,0-16.67-9.15-28.41-24.65-43.91L866.55,428c-11.74-11.74-16.67-23.72-16.67-36.16,0-25.13,16.9-39,41.79-39,25.83,0,41.8,11.74,44.14,47.66L925,403.15c-2.11-26.77-10.33-39.92-33.1-39.92-17.38,0-30.29,8.45-30.29,27.71,0,9.62,3.28,18.31,13.85,28.88l34.28,33.81c15.26,15,28.18,31.93,28.18,52.13,0,28.64-17.61,41.79-42.5,41.79C865.37,547.55,852,528.3,849.64,498.24Z"/><path class="cls-1" d="M956.71,495.66V459c0-33.81,7-51.66,34-51.66C1018,407.37,1025,425,1025,459v36.63c0,34.05-7,51.66-34.28,51.66C963.76,547.32,956.71,529.71,956.71,495.66Zm55.88.47V458.56c0-26.06-2.11-41.79-21.83-41.79s-21.6,15.73-21.6,41.79v37.57c0,26.06,1.87,41.79,21.6,41.79S1012.59,522.19,1012.59,496.13Z"/><path class="cls-1" d="M1051.57,355H1064V545.2h-12.45Z"/><path class="cls-1" d="M1091.72,517.73V409.49h12.44V516.32c0,16.67,5.64,21.37,14.33,21.37,9.62,0,19.72-6.81,27.94-16.44V409.49h12.21V545.2h-12.21v-16c-8.69,11-20.43,18.08-33.34,18.08C1100.88,547.32,1091.72,539.33,1091.72,517.73Z"/><path class="cls-1" d="M1193.86,518.43V417.7H1176v-8.21h17.85V366.05h12.44v43.44h23v8.21h-23v99.09c0,14.79,1.64,20,11.74,20a51.7,51.7,0,0,0,10.1-1.17v9.62a58.32,58.32,0,0,1-12.68,1.41C1196.44,546.61,1193.86,534.4,1193.86,518.43Z"/><path class="cls-1" d="M1249.27,370H1262v21.6h-12.68Zm0,39.45H1262V545.2h-12.68Z"/><path class="cls-1" d="M1289.18,495.66V459c0-33.81,7-51.66,34-51.66,27.23,0,34.28,17.61,34.28,51.66v36.63c0,34.05-7,51.66-34.28,51.66C1296.23,547.32,1289.18,529.71,1289.18,495.66Zm55.88.47V458.56c0-26.06-2.11-41.79-21.83-41.79s-21.6,15.73-21.6,41.79v37.57c0,26.06,1.87,41.79,21.6,41.79S1345.06,522.19,1345.06,496.13Z"/><path class="cls-1" d="M1381.69,409.49h12.45V424c8.45-10.09,19.72-16.67,32.16-16.67,12,0,21.37,8,21.37,29.59V545.2h-12.44V438.37c0-16.67-5.64-21.37-14.33-21.37-9.15,0-18.78,6.1-26.76,15V545.2h-12.45Z"/><path class="cls-1" d="M1468.1,508.57l10.56-3.05c1.65,22.78,10.8,32.4,26.07,32.4,13.62,0,21.6-8,21.6-22.07,0-9.63-6.11-20-20-31.7l-15.73-13.38c-13.62-11.51-19.49-20.9-19.49-34.52,0-18.55,12.21-28.88,30.76-28.88,20.19,0,30,13.86,30.76,35.46l-9.16,2.82c-.7-21.14-8.69-28.88-20.9-28.88-12,0-19.95,6.1-19.95,18.07,0,10.1,3,16.21,13.85,25.83l16.2,14.33c12,10.56,24.65,21.6,24.65,41.09,0,19.72-12.91,31.23-33.1,31.23C1482.89,547.32,1470,532.52,1468.1,508.57Z"/></g></g></svg>